<svg width="27" height="28" viewBox="0 0 27 28" fill="none" xmlns="http://www.w3.org/2000/svg">
<path d="M1.49059 27.49C1.34222 27.4916 1.19501 27.463 1.05743 27.406C0.919846 27.3489 0.794609 27.2645 0.688924 27.1575C0.567754 27.0346 0.474521 26.8857 0.415889 26.7215C0.357258 26.5572 0.334676 26.3817 0.349757 26.2075L0.827674 20.1275C0.848167 19.8452 0.968855 19.5804 1.16684 19.3833L18.2177 1.87167C19.1686 0.959447 20.432 0.470032 21.7327 0.510006C23.0252 0.520305 24.2654 1.03546 25.2014 1.95084C26.0992 2.89768 26.6156 4.15793 26.647 5.47918C26.6785 6.80042 26.2227 8.08508 25.371 9.07584L8.30476 26.6667C8.11375 26.8621 7.86364 26.985 7.59559 27.015L1.59851 27.5692L1.49059 27.49ZM3.03226 20.745L2.70851 25.0833L6.93267 24.6875L23.7368 7.39751C24.0645 6.99926 24.2739 6.51279 24.3403 5.9959C24.4066 5.47901 24.3271 4.95341 24.1112 4.48156C23.8953 4.0097 23.552 3.61142 23.1222 3.33402C22.6924 3.05662 22.194 2.91177 21.6864 2.91667C21.3527 2.89399 21.018 2.94125 20.7026 3.05557C20.3872 3.16989 20.0978 3.34888 19.8518 3.58167L3.03226 20.745Z" fill="black"/>
</svg>
