<svg width="88" height="88" viewBox="0 0 88 88" fill="none" xmlns="http://www.w3.org/2000/svg">
<path d="M76.6667 2H11.3333C6.17868 2 2 6.17868 2 11.3333V76.6667C2 81.8213 6.17868 86 11.3333 86H76.6667C81.8213 86 86 81.8213 86 76.6667V11.3333C86 6.17868 81.8213 2 76.6667 2Z" fill="black" fill-opacity="0.25"/>
<path d="M27.6667 34.6667C31.5327 34.6667 34.6667 31.5327 34.6667 27.6667C34.6667 23.8007 31.5327 20.6667 27.6667 20.6667C23.8007 20.6667 20.6667 23.8007 20.6667 27.6667C20.6667 31.5327 23.8007 34.6667 27.6667 34.6667Z" fill="black" fill-opacity="0.25"/>
<path d="M86 58L62.6667 34.6667L11.3333 86" fill="black" fill-opacity="0.25"/>
<path d="M11.3333 86H76.6667C81.8213 86 86 81.8213 86 76.6667V11.3333C86 6.17868 81.8213 2 76.6667 2H11.3333C6.17868 2 2 6.17868 2 11.3333V76.6667C2 81.8213 6.17868 86 11.3333 86ZM11.3333 86L62.6667 34.6667L86 58M34.6667 27.6667C34.6667 31.5327 31.5327 34.6667 27.6667 34.6667C23.8007 34.6667 20.6667 31.5327 20.6667 27.6667C20.6667 23.8007 23.8007 20.6667 27.6667 20.6667C31.5327 20.6667 34.6667 23.8007 34.6667 27.6667Z" stroke="#1E1E1E" stroke-opacity="0.25" stroke-width="4" stroke-linecap="round" stroke-linejoin="round"/>
</svg>
